<svg width="24" height="24" viewBox="0 0 24 24" fill="none" xmlns="http://www.w3.org/2000/svg">
<path fill-rule="evenodd" clip-rule="evenodd" d="M12.001 7.23607L11.4334 8.98278C11.0318 10.2188 9.87994 11.0557 8.58026 11.0557H6.74366L8.2295 12.1353C9.28097 12.8992 9.72094 14.2533 9.31932 15.4894L8.75178 17.2361L10.2376 16.1565C11.2891 15.3926 12.7129 15.3926 13.7643 16.1565L15.2502 17.2361L14.6826 15.4894C14.281 14.2533 14.721 12.8992 15.7724 12.1353L17.2583 11.0557H15.4217C14.122 11.0557 12.9701 10.2188 12.5685 8.98278L12.001 7.23607ZM12.952 3.69098C12.6527 2.76967 11.3493 2.76967 11.0499 3.69098L9.53132 8.36474C9.39745 8.77677 9.01349 9.05573 8.58026 9.05573H3.66598C2.69726 9.05573 2.29448 10.2953 3.07819 10.8647L7.05393 13.7533C7.40442 14.0079 7.55108 14.4593 7.4172 14.8713L5.89861 19.5451C5.59925 20.4664 6.65374 21.2325 7.43745 20.6631L11.4132 17.7746C11.7637 17.5199 12.2383 17.5199 12.5888 17.7746L16.5645 20.6631C17.3482 21.2325 18.4027 20.4664 18.1033 19.5451L16.5847 14.8713C16.4509 14.4593 16.5975 14.0079 16.948 13.7533L20.9238 10.8647C21.7075 10.2953 21.3047 9.05573 20.336 9.05573H15.4217C14.9885 9.05573 14.6045 8.77677 14.4706 8.36474L12.952 3.69098Z" fill="#344054"/>
</svg>
